<svg width="986" height="364" viewBox="0 0 986 364" fill="none" xmlns="http://www.w3.org/2000/svg">
<path d="M0 50C0 22.3858 22.3858 0 50 0H173.333C221.407 0 268.776 11.5529 311.451 33.6855L353.547 55.5175C439.22 99.9499 541.038 100.453 627.145 56.8689L675.618 32.3341C717.616 11.0765 764.027 0 811.099 0H936C963.614 0 986 22.3858 986 50V314C986 341.614 963.614 364 936 364H50C22.3858 364 0 341.614 0 314V50Z" fill="#4C0FA7"/>
<path d="M0 50C0 22.3858 22.3858 0 50 0H173.333C221.407 0 268.776 11.5529 311.451 33.6855L353.547 55.5175C439.22 99.9499 541.038 100.453 627.145 56.8689L675.618 32.3341C717.616 11.0765 764.027 0 811.099 0H936C963.614 0 986 22.3858 986 50V314C986 341.614 963.614 364 936 364H50C22.3858 364 0 341.614 0 314V50Z" fill="black" fill-opacity="0.2"/>
</svg>
